<?xml version="1.0" encoding="UTF-8" standalone="no"?>
<svg
   xmlns:dc="http://purl.org/dc/elements/1.1/"
   xmlns:cc="http://creativecommons.org/ns#"
   xmlns:rdf="http://www.w3.org/1999/02/22-rdf-syntax-ns#"
   xmlns:svg="http://www.w3.org/2000/svg"
   xmlns="http://www.w3.org/2000/svg"
   xmlns:sodipodi="http://sodipodi.sourceforge.net/DTD/sodipodi-0.dtd"
   xmlns:inkscape="http://www.inkscape.org/namespaces/inkscape"
   width="148mm"
   height="105mm"
   viewBox="0 0 524.40945 372.04724"
   id="svg3401"
   version="1.1"
   inkscape:version="1.0.2 (e86c870879, 2021-01-15)"
   sodipodi:docname="clube de leitura Python.svg">
  <defs
     id="defs3403" />
  <sodipodi:namedview
     id="base"
     pagecolor="#ffffff"
     bordercolor="#666666"
     borderopacity="1.0"
     inkscape:pageopacity="0.0"
     inkscape:pageshadow="2"
     inkscape:zoom="1.9031378"
     inkscape:cx="326.82648"
     inkscape:cy="158.86743"
     inkscape:document-units="px"
     inkscape:current-layer="layer1"
     showgrid="false"
     inkscape:window-width="1357"
     inkscape:window-height="969"
     inkscape:window-x="134"
     inkscape:window-y="81"
     inkscape:window-maximized="0"
     showguides="false"
     inkscape:guide-bbox="true"
     inkscape:document-rotation="0">
    <sodipodi:guide
       position="22.864082,323.31958"
       orientation="0,1"
       id="guide4257"
       inkscape:locked="false" />
    <sodipodi:guide
       position="218.62854,316.23548"
       orientation="0,-1"
       id="guide156" />
    <sodipodi:guide
       position="39.570008,195.18212"
       orientation="1,0"
       id="guide1193" />
    <sodipodi:guide
       position="54.351071,201.08632"
       orientation="1,0"
       id="guide1195" />
  </sodipodi:namedview>
  <metadata
     id="metadata3406">
    <rdf:RDF>
      <cc:Work
         rdf:about="">
        <dc:format>image/svg+xml</dc:format>
        <dc:type
           rdf:resource="http://purl.org/dc/dcmitype/StillImage" />
        <dc:title />
      </cc:Work>
    </rdf:RDF>
  </metadata>
  <g
     inkscape:label="Layer 1"
     inkscape:groupmode="layer"
     id="layer1"
     transform="translate(0,-680.31496)">
    <g
       id="g78"
       transform="matrix(2.0041894,0,0,2.0041894,-18.887934,-803.13783)">
      <rect
         style="fill:#e6e6e6;stroke-width:1.16548"
         id="rect120"
         width="56.25"
         height="56.25"
         x="86.660698"
         y="799.78723"
         inkscape:export-filename="/home/villares/Área de trabalho/CLUbe.png"
         inkscape:export-xdpi="800"
         inkscape:export-ydpi="800" />
      <g
         id="g1039"
         transform="translate(1.5342081,1.875)"
         inkscape:export-filename="/home/villares/Área de trabalho/CLUbe.png"
         inkscape:export-xdpi="800"
         inkscape:export-ydpi="800">
        <path
           id="path227"
           d="m 113.41947,834.40855 c 7.87268,0 7.40167,-3.43168 7.40167,-3.43168 v -3.56626 h -7.53624 v -1.0766 h 10.56419 c 0,0 5.04659,0.60559 5.04659,-7.40167 0,-8.00725 -4.441,-7.67081 -4.441,-7.67081 h -2.62422 v 3.70083 c 0,0 0.13457,4.441 -4.37372,4.441 h -7.46895 c 0,0 -4.17185,-0.0673 -4.17185,4.03727 v 6.79608 c 0,0 -0.67288,4.17184 7.60353,4.17184 z m 4.50829,-2.69151 c -0.74017,0 -1.34576,-0.60559 -1.34576,-1.34576 0,-0.74017 0.60559,-1.34576 1.34576,-1.34576 0.74017,0 1.34576,0.60559 1.34576,1.34576 0,0.74017 -0.60559,1.34576 -1.34576,1.34576 z"
           class="st2"
           inkscape:connector-curvature="0"
           style="fill:#5fbcd3;stroke-width:0.672879" />
        <circle
           r="1.4494433"
           cy="830.36139"
           cx="118.00879"
           id="path4813"
           style="fill:#aa8800;fill-opacity:1;stroke-width:0.9375" />
        <ellipse
           style="fill:#5fbcd3;fill-opacity:1;stroke-width:0.9375"
           id="path101"
           cx="109.02118"
           cy="807.89716"
           rx="2.32143"
           ry="2.1532149" />
        <path
           id="path98"
           d="m 114.04455,800.92148 c -7.87268,0 -7.40167,3.43168 -7.40167,3.43168 v 3.56626 h 7.53624 v 1.0766 h -10.56419 c 0,0 -5.04659,-0.60559 -5.04659,7.40167 0,8.00725 4.441,7.67081 4.441,7.67081 h 2.62422 v -3.70083 c 0,0 -0.13457,-4.441 4.37372,-4.441 h 7.46895 c 0,0 4.17185,0.0673 4.17185,-4.03727 v -6.79608 c 0,0 0.67288,-4.17184 -7.60353,-4.17184 z m -4.50829,2.69151 c 0.74017,0 1.34576,0.60559 1.34576,1.34576 0,0.74017 -0.60559,1.34576 -1.34576,1.34576 -0.74017,0 -1.34576,-0.60559 -1.34576,-1.34576 0,-0.74017 0.60559,-1.34576 1.34576,-1.34576 z"
           class="st2"
           inkscape:connector-curvature="0"
           style="fill:#aa8800;stroke-width:0.672879"
           transform="translate(-0.96151997,2.1309352)" />
        <g
           id="g170"
           transform="matrix(0.94977703,0,0,0.94977703,56.916326,28.627752)">
          <path
             d="m 44.681948,821.82848 c -0.0063,0.0104 -6.540057,2.91667 -6.540057,2.91667 -1.049583,0.51057 -1.430076,1.24585 -1.431386,2.2459 v 9.858 c 0.0013,1.57574 1.263273,2.8635 2.719035,2.86277 h 8.750021 v -1.8027 c -1.070306,-0.13817 -1.070246,-1.66904 -0.02396,-1.8087 V 823.87674 H 44.67596 l 0.006,-2.04826"
             style="fill:#5fbcd3;fill-opacity:1;fill-rule:nonzero;stroke:none;stroke-width:0.00598906"
             id="path122" />
          <path
             d="m 45.490471,836.36394 h -6.108844 c -0.952028,4.7e-4 -0.955441,1.34543 0,1.34754 h 6.162746 c -0.447383,-0.28825 -0.475472,-1.03227 -0.0539,-1.34754"
             style="fill:#aa8800;fill-opacity:1;fill-rule:nonzero;stroke:none;stroke-width:0.00598906"
             id="path132" />
          <path
             d="m 46.197181,834.44744 h -5.348234 l 3.827012,-1.71887 v -6.86346 h 1.521222 v 8.58233"
             style="fill:#aa8800;fill-opacity:1;fill-rule:nonzero;stroke:none;stroke-width:0.00598906"
             id="path134" />
        </g>
        <g
           id="g178"
           transform="matrix(-0.94981915,0,0,-0.94981915,169.5882,1608.8679)">
          <path
             d="m 44.681948,821.82848 c -0.0063,0.0104 -6.540057,2.91667 -6.540057,2.91667 -1.049583,0.51057 -1.430076,1.24585 -1.431386,2.2459 v 9.858 c 0.0013,1.57574 1.263273,2.8635 2.719035,2.86277 h 8.750021 v -1.8027 c -1.070306,-0.13817 -1.070246,-1.66904 -0.02396,-1.8087 V 823.87674 H 44.67596 l 0.006,-2.04826"
             style="fill:#aa8800;fill-opacity:1;fill-rule:nonzero;stroke:none;stroke-width:0.00598906"
             id="path172" />
          <path
             d="m 45.490471,836.36394 h -6.108844 c -0.952028,4.7e-4 -0.955441,1.34543 0,1.34754 h 6.162746 c -0.447383,-0.28825 -0.475472,-1.03227 -0.0539,-1.34754"
             style="fill:#5fbcd3;fill-opacity:1;fill-rule:nonzero;stroke:none;stroke-width:0.00598906"
             id="path174" />
          <path
             d="m 46.197181,834.44744 h -5.348234 l 3.827012,-1.71887 v -6.86346 h 1.521222 v 8.58233"
             style="fill:#5fbcd3;fill-opacity:1;fill-rule:nonzero;stroke:none;stroke-width:0.00598906"
             id="path176" />
        </g>
      </g>
      <text
         xml:space="preserve"
         style="font-style:normal;font-variant:normal;font-weight:normal;font-stretch:normal;font-size:6.66476px;line-height:0.75;font-family:'Inconsolata Black';-inkscape-font-specification:'Inconsolata Black, ';text-align:start;text-anchor:start;fill:#000000;fill-opacity:1;stroke:none;stroke-width:0.833095"
         x="92.907104"
         y="840.43011"
         id="text1007"
         inkscape:export-filename="/home/villares/Área de trabalho/CLUbe.png"
         inkscape:export-xdpi="800"
         inkscape:export-ydpi="800"><tspan
           sodipodi:role="line"
           x="92.907104"
           y="840.43011"
           style="font-style:normal;font-variant:normal;font-weight:normal;font-stretch:normal;font-size:6.66476px;font-family:'Inconsolata Black';-inkscape-font-specification:'Inconsolata Black, ';text-align:start;text-anchor:start;fill:#aa8800;fill-opacity:1;stroke-width:0.833095"
           id="tspan1017">clube</tspan><tspan
           sodipodi:role="line"
           x="92.907104"
           y="845.42871"
           style="font-style:normal;font-variant:normal;font-weight:normal;font-stretch:normal;font-size:6.66476px;font-family:'Inconsolata Black';-inkscape-font-specification:'Inconsolata Black, ';text-align:start;text-anchor:start;fill:#aa8800;fill-opacity:1;stroke-width:0.833095"
           id="tspan1025">de leitura</tspan><tspan
           sodipodi:role="line"
           x="92.907104"
           y="850.42725"
           style="font-style:normal;font-variant:normal;font-weight:normal;font-stretch:normal;font-size:6.66476px;font-family:'Inconsolata Black';-inkscape-font-specification:'Inconsolata Black, ';text-align:start;text-anchor:start;fill:#5fbcd3;fill-opacity:1;stroke-width:0.833095"
           id="tspan1009">Python</tspan></text>
    </g>
    <g
       id="g98"
       transform="matrix(2.0041894,0,0,2.0041894,-18.887934,-803.13783)">
      <rect
         style="fill:#e6e6e6;stroke-width:1.16548"
         id="rect1157"
         width="56.25"
         height="56.25"
         x="18.809135"
         y="800.31494"
         inkscape:export-filename="/home/villares/Área de trabalho/avatar.png"
         inkscape:export-xdpi="800"
         inkscape:export-ydpi="800" />
      <g
         id="g1183"
         transform="translate(-66.317354,1.6123001)"
         inkscape:export-filename="/home/villares/Área de trabalho/avatar.png"
         inkscape:export-xdpi="800"
         inkscape:export-ydpi="800">
        <path
           id="path1159"
           d="m 113.41947,834.40855 c 7.87268,0 7.40167,-3.43168 7.40167,-3.43168 v -3.56626 h -7.53624 v -1.0766 h 10.56419 c 0,0 5.04659,0.60559 5.04659,-7.40167 0,-8.00725 -4.441,-7.67081 -4.441,-7.67081 h -2.62422 v 3.70083 c 0,0 0.13457,4.441 -4.37372,4.441 h -7.46895 c 0,0 -4.17185,-0.0673 -4.17185,4.03727 v 6.79608 c 0,0 -0.67288,4.17184 7.60353,4.17184 z m 4.50829,-2.69151 c -0.74017,0 -1.34576,-0.60559 -1.34576,-1.34576 0,-0.74017 0.60559,-1.34576 1.34576,-1.34576 0.74017,0 1.34576,0.60559 1.34576,1.34576 0,0.74017 -0.60559,1.34576 -1.34576,1.34576 z"
           class="st2"
           inkscape:connector-curvature="0"
           style="fill:#5fbcd3;stroke-width:0.672879" />
        <circle
           r="1.4494433"
           cy="830.36139"
           cx="118.00879"
           id="circle1161"
           style="fill:#aa8800;fill-opacity:1;stroke-width:0.9375" />
        <ellipse
           style="fill:#5fbcd3;fill-opacity:1;stroke-width:0.9375"
           id="ellipse1163"
           cx="109.02118"
           cy="807.89716"
           rx="2.32143"
           ry="2.1532149" />
        <path
           id="path1165"
           d="m 114.04455,800.92148 c -7.87268,0 -7.40167,3.43168 -7.40167,3.43168 v 3.56626 h 7.53624 v 1.0766 h -10.56419 c 0,0 -5.04659,-0.60559 -5.04659,7.40167 0,8.00725 4.441,7.67081 4.441,7.67081 h 2.62422 v -3.70083 c 0,0 -0.13457,-4.441 4.37372,-4.441 h 7.46895 c 0,0 4.17185,0.0673 4.17185,-4.03727 v -6.79608 c 0,0 0.67288,-4.17184 -7.60353,-4.17184 z m -4.50829,2.69151 c 0.74017,0 1.34576,0.60559 1.34576,1.34576 0,0.74017 -0.60559,1.34576 -1.34576,1.34576 -0.74017,0 -1.34576,-0.60559 -1.34576,-1.34576 0,-0.74017 0.60559,-1.34576 1.34576,-1.34576 z"
           class="st2"
           inkscape:connector-curvature="0"
           style="fill:#aa8800;stroke-width:0.672879"
           transform="translate(-0.96151997,2.1309352)" />
        <g
           id="g1173"
           transform="matrix(0.94977703,0,0,0.94977703,56.916326,28.627752)">
          <path
             d="m 44.681948,821.82848 c -0.0063,0.0104 -6.540057,2.91667 -6.540057,2.91667 -1.049583,0.51057 -1.430076,1.24585 -1.431386,2.2459 v 9.858 c 0.0013,1.57574 1.263273,2.8635 2.719035,2.86277 h 8.750021 v -1.8027 c -1.070306,-0.13817 -1.070246,-1.66904 -0.02396,-1.8087 V 823.87674 H 44.67596 l 0.006,-2.04826"
             style="fill:#5fbcd3;fill-opacity:1;fill-rule:nonzero;stroke:none;stroke-width:0.00598906"
             id="path1167" />
          <path
             d="m 45.490471,836.36394 h -6.108844 c -0.952028,4.7e-4 -0.955441,1.34543 0,1.34754 h 6.162746 c -0.447383,-0.28825 -0.475472,-1.03227 -0.0539,-1.34754"
             style="fill:#aa8800;fill-opacity:1;fill-rule:nonzero;stroke:none;stroke-width:0.00598906"
             id="path1169" />
          <path
             d="m 46.197181,834.44744 h -5.348234 l 3.827012,-1.71887 v -6.86346 h 1.521222 v 8.58233"
             style="fill:#aa8800;fill-opacity:1;fill-rule:nonzero;stroke:none;stroke-width:0.00598906"
             id="path1171" />
        </g>
        <g
           id="g1181"
           transform="matrix(-0.94981915,0,0,-0.94981915,169.5882,1608.8679)">
          <path
             d="m 44.681948,821.82848 c -0.0063,0.0104 -6.540057,2.91667 -6.540057,2.91667 -1.049583,0.51057 -1.430076,1.24585 -1.431386,2.2459 v 9.858 c 0.0013,1.57574 1.263273,2.8635 2.719035,2.86277 h 8.750021 v -1.8027 c -1.070306,-0.13817 -1.070246,-1.66904 -0.02396,-1.8087 V 823.87674 H 44.67596 l 0.006,-2.04826"
             style="fill:#aa8800;fill-opacity:1;fill-rule:nonzero;stroke:none;stroke-width:0.00598906"
             id="path1175" />
          <path
             d="m 45.490471,836.36394 h -6.108844 c -0.952028,4.7e-4 -0.955441,1.34543 0,1.34754 h 6.162746 c -0.447383,-0.28825 -0.475472,-1.03227 -0.0539,-1.34754"
             style="fill:#5fbcd3;fill-opacity:1;fill-rule:nonzero;stroke:none;stroke-width:0.00598906"
             id="path1177" />
          <path
             d="m 46.197181,834.44744 h -5.348234 l 3.827012,-1.71887 v -6.86346 h 1.521222 v 8.58233"
             style="fill:#5fbcd3;fill-opacity:1;fill-rule:nonzero;stroke:none;stroke-width:0.00598906"
             id="path1179" />
        </g>
      </g>
      <text
         xml:space="preserve"
         style="font-style:normal;font-variant:normal;font-weight:normal;font-stretch:normal;font-size:6.15825px;line-height:0.75;font-family:'Inconsolata Black';-inkscape-font-specification:'Inconsolata Black, ';text-align:start;word-spacing:0.3px;text-anchor:start;fill:#000000;fill-opacity:1;stroke:none;stroke-width:0.769781"
         x="45.480885"
         y="841.29437"
         id="text1191"
         inkscape:export-filename="/home/villares/Área de trabalho/avatar.png"
         inkscape:export-xdpi="800"
         inkscape:export-ydpi="800"><tspan
           sodipodi:role="line"
           x="45.480885"
           y="841.29437"
           style="font-style:normal;font-variant:normal;font-weight:normal;font-stretch:normal;font-size:6.15825px;font-family:'Inconsolata Black';-inkscape-font-specification:'Inconsolata Black, ';text-align:center;text-anchor:middle;fill:#aa8800;fill-opacity:1;stroke-width:0.769781"
           id="tspan1187"> clube</tspan><tspan
           sodipodi:role="line"
           x="45.480885"
           y="845.91309"
           style="font-style:normal;font-variant:normal;font-weight:normal;font-stretch:normal;font-size:6.15825px;font-family:'Inconsolata Black';-inkscape-font-specification:'Inconsolata Black, ';text-align:center;text-anchor:middle;fill:#aa8800;fill-opacity:1;stroke-width:0.769781"
           id="tspan1223">de leitura</tspan><tspan
           sodipodi:role="line"
           x="45.480885"
           y="850.53174"
           style="font-style:normal;font-variant:normal;font-weight:normal;font-stretch:normal;font-size:6.15825px;font-family:'Inconsolata Black';-inkscape-font-specification:'Inconsolata Black, ';text-align:center;text-anchor:middle;fill:#5fbcd3;fill-opacity:1;stroke-width:0.769781"
           id="tspan1189">  Python</tspan></text>
    </g>
    <text
       xml:space="preserve"
       style="font-style:normal;font-weight:normal;font-size:7.47689px;line-height:1.25;font-family:sans-serif;fill:#000000;fill-opacity:1;stroke:none;stroke-width:0.186922"
       x="33.953449"
       y="944.88629"
       id="text58"><tspan
         sodipodi:role="line"
         id="tspan56"
         x="33.953449"
         y="944.88629"
         style="stroke-width:0.186922">para avatar redondo</tspan></text>
  </g>
  <style
     id="style221"
     type="text/css">
	.st0{fill:#3771A1;}
	.st1{fill:#FFFFFF;}
	.st2{fill:#FFD242;}
</style>
</svg>
